<svg id="visual" viewBox="0 0 900 600" width="900" height="600" xmlns="http://www.w3.org/2000/svg" xmlns:xlink="http://www.w3.org/1999/xlink" version="1.1"><g><g transform="translate(555 364)"><path d="M60.6 -73.4C79.8 -56.1 97.6 -38.2 104.5 -15.9C111.5 6.4 107.6 33.2 95.6 56.2C83.5 79.1 63.1 98.4 39.8 105.1C16.4 111.8 -10.1 106 -35.9 97.2C-61.7 88.4 -86.9 76.6 -99.6 56.5C-112.4 36.5 -112.6 8.3 -103.8 -14.2C-95 -36.7 -77 -53.6 -58.2 -71C-39.4 -88.4 -19.7 -106.3 0.5 -106.9C20.7 -107.5 41.4 -90.7 60.6 -73.4Z" fill="#6366f1"></path></g><g transform="translate(115 449)"><path d="M63.3 -77.4C80.9 -60.6 93.3 -39.6 93.1 -19.5C93 0.5 80.2 19.7 68.8 40C57.4 60.3 47.5 81.7 29.6 93.5C11.7 105.4 -14.2 107.7 -33.3 98C-52.4 88.2 -64.9 66.4 -75.5 45C-86.2 23.6 -95.2 2.6 -92.7 -17.2C-90.3 -37.1 -76.4 -55.8 -59 -72.6C-41.6 -89.4 -20.8 -104.4 1 -105.6C22.8 -106.8 45.7 -94.2 63.3 -77.4Z" fill="#6366f1"></path></g><g transform="translate(113 152)"><path d="M55.4 -70C67.2 -56.1 69.1 -34.3 74.7 -11.8C80.3 10.7 89.7 33.9 82.7 49.4C75.7 64.9 52.5 72.6 31.2 76.1C10 79.7 -9.3 79.1 -29.8 74.7C-50.4 70.4 -72.1 62.3 -83.9 46.3C-95.6 30.3 -97.2 6.5 -93.3 -16.5C-89.3 -39.4 -79.7 -61.4 -63.2 -74.6C-46.7 -87.7 -23.3 -91.9 -0.8 -91C21.8 -90 43.6 -83.9 55.4 -70Z" fill="#6366f1"></path></g><g transform="translate(372 11)"><path d="M49.8 -56.2C66.1 -45.6 82.2 -31.4 86.3 -14.3C90.5 2.9 82.8 23.1 71.3 39.4C59.8 55.8 44.6 68.2 27.3 74.1C10 80 -9.3 79.3 -29.5 74.7C-49.7 70.1 -70.8 61.6 -81.9 45.7C-92.9 29.8 -94 6.5 -86.5 -11.6C-79 -29.7 -62.8 -42.7 -47 -53.4C-31.1 -64.1 -15.6 -72.6 0.6 -73.3C16.7 -73.9 33.4 -66.8 49.8 -56.2Z" fill="#6366f1"></path></g><g transform="translate(788 592)"><path d="M47 -60.2C57.6 -47.1 60.6 -29.2 64.5 -10.8C68.4 7.5 73.2 26.3 68 42.9C62.8 59.5 47.5 74 29.1 81.3C10.7 88.7 -10.9 88.9 -30 82C-49 75.2 -65.6 61.3 -73.1 44.2C-80.5 27.1 -78.8 6.8 -72.8 -10.4C-66.9 -27.5 -56.7 -41.5 -43.9 -54.1C-31 -66.8 -15.5 -78.1 1.3 -79.7C18.2 -81.3 36.4 -73.2 47 -60.2Z" fill="#6366f1"></path></g><g transform="translate(799 111)"><path d="M65.7 -76.2C82.7 -64.1 92.3 -41 93 -19.1C93.7 2.9 85.4 23.7 73.3 40.1C61.2 56.5 45.2 68.5 27.9 73.3C10.6 78 -8 75.6 -26.7 70.2C-45.4 64.7 -64.1 56.3 -75.8 41.2C-87.5 26.2 -92.2 4.6 -90.4 -17.7C-88.5 -39.9 -80.2 -62.8 -64.1 -75.1C-47.9 -87.4 -24 -89.2 0.2 -89.4C24.4 -89.6 48.7 -88.4 65.7 -76.2Z" fill="#6366f1"></path></g></g></svg>