<svg width="3000" height="1509" viewBox="0 0 3000 1509" fill="none" xmlns="http://www.w3.org/2000/svg">
<g clip-path="url(#clip0_108_21)">
<path d="M0 0H3000V813C3000 813 2512.5 641.664 2068 877C1623.5 1112.34 1645 1530.66 1351 1508C1057 1485.34 1086 1268.66 652.5 1053.66C219 838.664 0 813 0 813V0Z" fill="url(#paint0_diamond_108_21)"/>
<g filter="url(#filter0_d_108_21)">
<path d="M382.572 0.164062H2332.57C2332.57 0.164062 2105.37 523.668 1892.57 730.123C1679.77 936.578 1587.09 1172.62 1238.41 1054.12C889.722 935.631 1327.41 594.123 806.697 635.623C285.986 677.123 382.572 0.164062 382.572 0.164062Z" fill="url(#paint1_linear_108_21)" shape-rendering="crispEdges"/>
</g>
</g>
<defs>
<filter id="filter0_d_108_21" x="175.5" y="-195.836" width="2357.07" height="1485.75" filterUnits="userSpaceOnUse" color-interpolation-filters="sRGB">
<feFlood flood-opacity="0" result="BackgroundImageFix"/>
<feColorMatrix in="SourceAlpha" type="matrix" values="0 0 0 0 0 0 0 0 0 0 0 0 0 0 0 0 0 0 127 0" result="hardAlpha"/>
<feOffset dy="4"/>
<feGaussianBlur stdDeviation="100"/>
<feComposite in2="hardAlpha" operator="out"/>
<feColorMatrix type="matrix" values="0 0 0 0 0.192157 0 0 0 0 0.180392 0 0 0 0 0.505882 0 0 0 0.4 0"/>
<feBlend mode="normal" in2="BackgroundImageFix" result="effect1_dropShadow_108_21"/>
<feBlend mode="normal" in="SourceGraphic" in2="effect1_dropShadow_108_21" result="shape"/>
</filter>
<radialGradient id="paint0_diamond_108_21" cx="0" cy="0" r="1" gradientUnits="userSpaceOnUse" gradientTransform="translate(1500.5 -294.836) rotate(114.518) scale(1802.53 3583.83)">
<stop stop-color="#4F46E5"/>
<stop offset="1" stop-color="#9333EA"/>
</radialGradient>
<linearGradient id="paint1_linear_108_21" x1="1354.04" y1="0.16406" x2="1403" y2="1086.16" gradientUnits="userSpaceOnUse">
<stop stop-color="#4F46E5"/>
<stop offset="1" stop-color="#4F46E5" stop-opacity="0"/>
</linearGradient>
<clipPath id="clip0_108_21">
<rect width="3000" height="1508.88" fill="white"/>
</clipPath>
</defs>
</svg>
