<svg id="visual" viewBox="0 0 900 600" width="900" height="600" xmlns="http://www.w3.org/2000/svg" xmlns:xlink="http://www.w3.org/1999/xlink" version="1.1"><rect x="0" y="0" width="900" height="600" fill="#e0e7ff"></rect><defs><linearGradient id="grad1_0" x1="33.3%" y1="0%" x2="100%" y2="100%"><stop offset="20%" stop-color="#e0e7ff" stop-opacity="1"></stop><stop offset="80%" stop-color="#e0e7ff" stop-opacity="1"></stop></linearGradient></defs><defs><linearGradient id="grad2_0" x1="0%" y1="0%" x2="66.7%" y2="100%"><stop offset="20%" stop-color="#e0e7ff" stop-opacity="1"></stop><stop offset="80%" stop-color="#e0e7ff" stop-opacity="1"></stop></linearGradient></defs><g transform="translate(900, 0)"><path d="M0 459.7C-22.9 433.7 -45.8 407.7 -70.5 399.8C-95.2 391.9 -121.8 402.2 -144 395.6C-166.2 389.1 -184.2 365.7 -200 346.4C-215.8 327.1 -229.6 311.8 -257.8 307.2C-286 302.6 -328.6 308.7 -352.2 295.5C-375.7 282.3 -380.1 249.8 -383.6 221.5C-387.2 193.2 -390 168.9 -402.2 146.4C-414.4 123.8 -435.9 103 -447.1 78.8C-458.3 54.7 -459 27.4 -459.7 0L0 0Z" fill="#4f46e5"></path></g><g transform="translate(0, 600)"><path d="M0 -459.7C23.8 -442.1 47.6 -424.4 74.5 -422.5C101.3 -420.5 131.2 -434.3 157.2 -432C183.2 -429.6 205.4 -411.2 229 -396.6C252.6 -382.1 277.7 -371.5 294.4 -350.8C311.1 -330.2 319.5 -299.7 324 -271.9C328.6 -244.1 329.3 -219.1 349.9 -202C370.4 -184.9 410.7 -175.5 427.6 -155.6C444.4 -135.7 437.8 -105.2 439.2 -77.4C440.7 -49.7 450.2 -24.9 459.7 0L0 0Z" fill="#4f46e5"></path></g></svg>